<svg xmlns="http://www.w3.org/2000/svg" version="1.1" xmlns:xlink="http://www.w3.org/1999/xlink" xmlns:svgjs="http://svgjs.dev/svgjs" width="1000" height="1000" viewBox="0 0 1000 1000"><rect width="1000" height="1000" fill="#ffffff"></rect><g transform="matrix(0.3657262277951933,0,0,0.3657262277951933,317.55228066301845,150)"><svg viewBox="0 0 94 180" data-background-color="#0c1d36" preserveAspectRatio="xMidYMid meet" height="1914" width="1000" xmlns="http://www.w3.org/2000/svg" xmlns:xlink="http://www.w3.org/1999/xlink"><g id="tight-bounds" transform="matrix(1,0,0,1,-0.10676589681088444,0)"><svg viewBox="0 0 94.21345494867023 180" height="180" width="94.21345494867023"><g><svg viewBox="0 0 109.23391090365388 208.69740923279045" height="180" width="94.21345494867023"><g><svg viewBox="0 0 109.23391090365388 208.69740923279045" height="208.69740923279045" width="109.23391090365388"><g><path d="M0 208.697v-208.697h109.234v208.697z" fill="#000000" stroke="transparent" stroke-width="0" rx="0%" data-fill-palette-color="tertiary"></path><path d="M3.283 205.414v-202.131h102.668v202.131z" fill="#ffffff" stroke="transparent" stroke-width="0" rx="0%" data-fill-palette-color="quaternary"></path><path d="M9.85 198.848v-188.998h89.534v188.998z" fill="#000000" stroke="transparent" stroke-width="0" data-fill-palette-color="tertiary"></path></g><g transform="matrix(1,0,0,1,19.69974,19.699740000000013)" id="textblocktransform"><svg viewBox="0 0 69.83443090365388 169.29792923279044" height="169.29792923279044" width="69.83443090365388" id="textblock"><g><svg viewBox="0 0 69.83443090365388 100.57561757280003" height="100.57561757280003" width="69.83443090365388"><g transform="matrix(1,0,0,1,0,0)"><svg width="69.83443090365388" viewBox="2.8499999046325684 -35.83000183105469 24.8799991607666 35.83000183105469" height="100.57561757280003" data-palette-color="#0c1d36"><path d="M12.65-15.03L9.35-15.03 7.5 0 2.85 0 7.23-35.83 16.65-35.83Q19.5-35.83 21.59-35.23 23.68-34.63 25.04-33.51 26.4-32.4 27.06-30.81 27.73-29.23 27.73-27.28L27.73-27.28Q27.73-25.1 27.08-23.23 26.43-21.35 25.2-19.86 23.98-18.38 22.25-17.34 20.53-16.3 18.35-15.8L18.35-15.8Q19.15-15.25 19.68-14.3L19.68-14.3 27.4 0 23.25 0Q22.03 0 21.5-1L21.5-1 14.75-13.9Q14.43-14.53 14-14.78 13.58-15.03 12.65-15.03L12.65-15.03ZM16.23-32.15L11.48-32.15 9.78-18.43 14.35-18.43Q16.48-18.43 18.1-19.03 19.73-19.63 20.84-20.71 21.95-21.8 22.51-23.29 23.08-24.78 23.08-26.55L23.08-26.55Q23.08-29.28 21.36-30.71 19.65-32.15 16.23-32.15L16.23-32.15Z" opacity="1" transform="matrix(1,0,0,1,0,0)" fill="#ffffff" class="wordmark-text-0" data-fill-palette-color="quaternary" id="text-0"></path></svg></g></svg></g><g transform="matrix(1,0,0,1,0,107.14219757280003)"><svg viewBox="0 0 69.83443090365388 62.155731659990415" height="62.155731659990415" width="69.83443090365388"><g transform="matrix(1,0,0,1,0,0)"><svg width="69.83443090365388" viewBox="0.9500000476837158 -36 24.19999885559082 36" height="62.155731659990415" data-palette-color="#0c1d36"><path d="M25.15-7.8L23.75 0 0.95 0 7.3-36 16.3-36 11.35-7.8 25.15-7.8Z" opacity="1" transform="matrix(1,0,0,1,0,0)" fill="#ffffff" class="slogan-text-1" data-fill-palette-color="quaternary" id="text-1"></path></svg></g></svg></g></svg></g></svg></g></svg></g><defs></defs></svg><rect width="94.21345494867023" height="180" fill="none" stroke="none" visibility="hidden"></rect></g></svg></g></svg>