<?xml version="1.0" standalone="no"?>
<!DOCTYPE svg PUBLIC "-//W3C//DTD SVG 20010904//EN"
 "http://www.w3.org/TR/2001/REC-SVG-20010904/DTD/svg10.dtd">
<svg version="1.0" xmlns="http://www.w3.org/2000/svg"
 width="512.000000pt" height="512.000000pt" viewBox="0 0 512.000000 512.000000"
 preserveAspectRatio="xMidYMid meet">

<g transform="translate(0.000000,512.000000) scale(0.100000,-0.100000)"
fill="#999" stroke="none">
<path d="M2909 4786 c-230 -64 -580 -436 -984 -1046 -120 -181 -381 -609 -440
-722 l-29 -56 38 -59 c56 -83 181 -204 282 -270 176 -114 359 -176 529 -177
l99 -1 53 95 c29 52 109 205 177 340 335 661 514 1144 557 1500 26 215 -29
362 -147 398 -50 15 -75 14 -135 -2z"/>
<path d="M3400 4252 c-6 -42 -20 -112 -31 -156 -11 -43 -19 -79 -17 -80 2 -2
30 -13 62 -26 191 -76 496 -310 621 -475 357 -475 382 -1292 58 -1935 -97
-192 -181 -308 -338 -466 -172 -173 -309 -276 -483 -363 -280 -140 -493 -147
-621 -20 -78 79 -85 104 -92 364 -4 127 -12 257 -19 290 -39 197 -123 350
-246 451 l-44 37 -53 -50 c-28 -27 -83 -73 -120 -102 l-68 -54 68 -62 c130
-119 152 -188 163 -520 9 -267 18 -314 77 -429 44 -83 162 -208 238 -250 105
-58 190 -79 315 -80 135 0 241 20 380 71 364 135 744 442 982 793 483 714 541
1736 136 2398 -88 144 -188 255 -354 393 -166 138 -375 262 -560 332 l-41 16
-13 -77z"/>
<path d="M3495 3426 c-73 -18 -132 -52 -191 -108 -135 -128 -133 -312 5 -395
123 -74 296 -44 422 74 144 135 139 329 -11 405 -66 34 -153 43 -225 24z"/>
<path d="M1301 2606 c-57 -176 -74 -285 -75 -463 -1 -150 -2 -163 -19 -163
-28 0 -166 -30 -217 -47 -190 -63 -329 -181 -410 -348 -77 -158 -89 -285 -50
-549 20 -139 21 -167 11 -224 -17 -93 -52 -155 -142 -248 -125 -130 -105 -171
107 -220 168 -39 380 -17 555 57 276 117 521 362 636 635 53 125 68 197 68
334 0 141 -15 203 -72 297 -18 30 -33 59 -33 62 0 4 28 21 62 37 119 55 239
144 364 269 66 66 126 130 132 141 11 21 8 22 -76 38 -288 57 -586 223 -757
424 l-54 62 -30 -94z"/>
<path d="M3655 2546 c-110 -28 -216 -109 -263 -201 -37 -73 -37 -163 1 -227
51 -88 164 -131 283 -109 237 43 389 274 289 437 -56 89 -188 132 -310 100z"/>
<path d="M3175 1666 c-110 -28 -216 -109 -263 -201 -35 -68 -36 -161 -4 -223
46 -87 169 -135 289 -113 236 43 388 274 288 437 -55 88 -189 132 -310 100z"/>
</g>
</svg>
